<svg xmlns="http://www.w3.org/2000/svg" preserveAspectRatio="none" viewBox="0 0 24 24"><g transform="translate(1226.548 -1052.439)"><path d="M-1226.548,1052.439h24v24h-24Z" fill="none"/><path d="M-1214.548,1056.439a8,8,0,0,0-8,8,8,8,0,0,0,8,8,8,8,0,0,0,8-8A8,8,0,0,0-1214.548,1056.439Zm0,2.4a2.4,2.4,0,0,1,2.4,2.4,2.4,2.4,0,0,1-2.4,2.4,2.4,2.4,0,0,1-2.4-2.4A2.4,2.4,0,0,1-1214.548,1058.839Zm0,11.36a5.76,5.76,0,0,1-4.8-2.576c.024-1.592,3.2-2.464,4.8-2.464s4.776.872,4.8,2.464A5.76,5.76,0,0,1-1214.548,1070.2Z" fill="#858c9e"/></g></svg>