<svg id="그룹_25710" data-name="그룹 25710" xmlns="http://www.w3.org/2000/svg" width="24" height="24" viewBox="0 0 24 24">
  <path id="패스_13127" data-name="패스 13127" d="M-1125.212,1093.607h24v24h-24Z" transform="translate(1125.212 -1093.607)" fill="none"/>
  <path id="패스_13128" data-name="패스 13128" d="M-1106.754,1102.425l-4.508-4.293a1.918,1.918,0,0,0-1.325-.525h-5.759a1.821,1.821,0,0,0-1.857,1.778l-.009,12.445a1.82,1.82,0,0,0,1.857,1.777h10.276a1.829,1.829,0,0,0,1.867-1.777v-8.152A1.731,1.731,0,0,0-1106.754,1102.425Zm-5.058,1.4a.915.915,0,0,1-.934-.889v-4l5.134,4.889Z" transform="translate(1125.212 -1093.607)" fill="#858c9e"/>
</svg>
