<svg xmlns="http://www.w3.org/2000/svg" xmlns:xlink="http://www.w3.org/1999/xlink" preserveAspectRatio="none" viewBox=" 0 0 48 48"><defs><linearGradient id="a" x1="0.14" y1="0.136" x2="0.909" y2="0.913" gradientUnits="objectBoundingBox"><stop offset="0" stop-color="#ffa700"/><stop offset="1" stop-color="#ff8900"/></linearGradient><linearGradient id="b" x1="0.383" y1="0.448" x2="1.288" y2="0.687" gradientUnits="objectBoundingBox"><stop offset="0" stop-color="#683d05" stop-opacity="0"/><stop offset="1" stop-color="#af0000"/></linearGradient></defs><g transform="translate(-1103.52 -89)"><g transform="translate(1103.52 89)"><path d="M11.52,0H36.48A11.52,11.52,0,0,1,48,11.52V36.48A11.52,11.52,0,0,1,36.48,48H11.52A11.52,11.52,0,0,1,0,36.48V11.52A11.52,11.52,0,0,1,11.52,0Z" transform="translate(0 0)" fill="url(#a)"/></g><g transform="translate(1111.273 103.965)"><path d="M-5882.825,2228.989a1.027,1.027,0,0,0-.114-.087,3.5,3.5,0,0,0-.483-.256,6.642,6.642,0,0,0-1.378-.454,11.2,11.2,0,0,0-1.461-.206c-.252-.022-.505-.038-.757-.05-1.526-.074-3.058-.062-4.585-.05a1.146,1.146,0,0,0-.46.068,1.162,1.162,0,0,0-.491.614q-1.929,4.113-3.859,8.224c-.346.738-.683,1.492-.969,2.258l-.013-.012-1.461,3.138a2.837,2.837,0,0,0,2.572,4.038h5.089l-.03-.038a13.4,13.4,0,0,0,6.728-1.76,3.863,3.863,0,0,1-1.126-2.858,7.412,7.412,0,0,1,.787-3.038,7.616,7.616,0,0,1-3.693,3.672,7.563,7.563,0,0,1-2.6.326c-.589,0-1.179-.026-1.767-.052a1.259,1.259,0,0,1-1.009-.36c-.26-.355-.079-.854.11-1.254q1.959-4.185,3.922-8.37a1.679,1.679,0,0,1,.435-.644,1.672,1.672,0,0,1,1.071-.225l1.714.024a2.179,2.179,0,0,1,1.864.644c.149.221.368.552.588.4a.4.4,0,0,0,.123-.177c.233-.507.46-1.02.683-1.532s.446-1.024.647-1.544A.349.349,0,0,0-5882.825,2228.989Z" transform="translate(5899.128 -2227.877)" fill="#fff"/><path d="M-5898.858,2236.851a2.838,2.838,0,0,0,2.572,4.04h4.274c.039,0,.065.006.1.006l.294-.006h.418l-.008-.012.269-.006a13.047,13.047,0,0,0,6.439-1.786,4.105,4.105,0,0,1-.408-.428,4.176,4.176,0,0,1-.717-2.406,7.118,7.118,0,0,1,.729-2.945l.055-.114a11.313,11.313,0,0,1-.693,1.144,7.963,7.963,0,0,1-2.016,2.028,4.286,4.286,0,0,1-2.482.794h-2.871a1.247,1.247,0,0,1-.87-.242.794.794,0,0,1-.255-.6,1.643,1.643,0,0,1,.192-.73l.142-.3h-4.438Z" transform="translate(5899.128 -2222.559)" opacity="0.35" fill="url(#b)"/><path d="M-5881.566,2246.218a7.874,7.874,0,0,0,3.762-.856,6.377,6.377,0,0,0,2.484-2.3,6.217,6.217,0,0,0,.892-3.264,4.114,4.114,0,0,0-.677-2.327,7.656,7.656,0,0,0,2.676-2.124,4.544,4.544,0,0,0,.971-2.841,4.118,4.118,0,0,0-.715-2.394,4.76,4.76,0,0,0-2.144-1.632,9.4,9.4,0,0,0-3.59-.594h-7.552a.658.658,0,0,0-.594.378l-6.9,14.854a2.184,2.184,0,0,0,1.979,3.1Zm5.056-13.026-.192.4a2.548,2.548,0,0,1-2.612,1.573h-2.146a.439.439,0,0,0-.4.252l-1.343,2.862a.438.438,0,0,0,.4.624h2.57a1.362,1.362,0,0,1,.883.236.658.658,0,0,1,.288.436c0,.132.006.214.006.248a1.637,1.637,0,0,1-.152.666l-.192.41a2.583,2.583,0,0,1-1.209,1.248,3.57,3.57,0,0,1-1.479.338h-3.529a1.241,1.241,0,0,1-.855-.236.768.768,0,0,1-.257-.6,1.853,1.853,0,0,1,.178-.755l.948-2,1.767-3.738,1.44-3.055a.874.874,0,0,1,.79-.5h4.167a1.124,1.124,0,0,1,.773.237.78.78,0,0,1,.288.448c.015.14.024.232.024.276A1.5,1.5,0,0,1-5876.511,2233.192Z" transform="translate(5905.103 -2227.873)" fill="#fff"/></g></g></svg>