<svg xmlns="http://www.w3.org/2000/svg" xmlns:xlink="http://www.w3.org/1999/xlink" preserveAspectRatio="none" viewBox=" 0 0 48 48"><g transform="translate(-980.641 -191.5)"><path d="M11.52,0H36.48A11.52,11.52,0,0,1,48,11.52V36.48A11.52,11.52,0,0,1,36.48,48H11.52A11.52,11.52,0,0,1,0,36.48V11.52A11.52,11.52,0,0,1,11.52,0Z" transform="translate(980.641 191.5)" fill="#fff"/><g transform="translate(989.766 206.307)"><path d="M-5938.294,2228.734l-8.006,17.069a.658.658,0,0,1-.594.378h-6.668a2.188,2.188,0,0,1-2.189-2.189l.627-5.446,1.584-10.192a.657.657,0,0,1,.65-.556h3.468a.842.842,0,0,1,.532.448l-2.366,12.51s-.289,1.68,1.072,1.68l6.686-14.259a.658.658,0,0,1,.594-.378h4.014A.658.658,0,0,1-5938.294,2228.734Z" transform="translate(5969.188 -2227.798)" fill="#3195ff"/><path d="M-5951.254,2240.755l2.363-12.51a.842.842,0,0,0-.532-.448h-3.468a.657.657,0,0,0-.65.556l-1.584,10.192-.627,5.446a2.186,2.186,0,0,0,.171.85l4.491-2.9A2.1,2.1,0,0,1-5951.254,2240.755Z" transform="translate(5969.188 -2227.798)" opacity="0.35" fill="url(#a)"/><path d="M-5960.277,2246.181h6.1a.654.654,0,0,0,.551-.3l11.353-17.41c.369-.564-.341-.676-.365-.676h-3.55a.653.653,0,0,0-.555.308l-8.97,14.33a1.2,1.2,0,0,1-.961-1.865l5.328-11.846a.656.656,0,0,0-.6-.926h-4a.664.664,0,0,0-.616.42l-5.766,14.988A2.19,2.19,0,0,0-5960.277,2246.181Z" transform="translate(5962.471 -2227.798)" fill="#3195ff"/></g></g></svg>