<svg xmlns="http://www.w3.org/2000/svg" xmlns:xlink="http://www.w3.org/1999/xlink" preserveAspectRatio="none" viewBox=" 0 0 48 48"><defs><linearGradient id="a" x1="0.137" y1="0.166" x2="0.926" y2="0.892" gradientUnits="objectBoundingBox"><stop offset="0" stop-color="#4a5161"/><stop offset="1" stop-color="#2c3140"/></linearGradient><radialGradient id="b" cx="-1.173" cy="0.849" r="1.432" gradientTransform="translate(0.339 -0.042) scale(1.442 1.05)" gradientUnits="objectBoundingBox"><stop offset="0.552" stop-opacity="0.6"/><stop offset="1" stop-opacity="0"/></radialGradient></defs><g transform="translate(-1168.801 -89)"><g transform="translate(1168.801 89)"><path d="M11.52,0H36.48A11.52,11.52,0,0,1,48,11.52V36.48A11.52,11.52,0,0,1,36.48,48H11.52A11.52,11.52,0,0,1,0,36.48V11.52A11.52,11.52,0,0,1,11.52,0Z" transform="translate(0 0)" fill="url(#a)"/></g><g transform="translate(1176.277 103.457)"><path d="M-5842.541,2227.72h-6.689c-.732,0-1.534.042-2.41.124a15.982,15.982,0,0,0-2.612.47,9.212,9.212,0,0,0-2.39,1,5.2,5.2,0,0,0-1.756,1.712,4.81,4.81,0,0,0-.667,2.612,3.03,3.03,0,0,0,.742,1.934,8.8,8.8,0,0,0,1.891,1.7,20.158,20.158,0,0,0,2.445,1.432c.475.26.934.513,1.383.758q.909.483,1.648.908a9.284,9.284,0,0,1,1.19.784c.3.238.448.458.448.66a.579.579,0,0,1-.28.508,1.813,1.813,0,0,1-.634.256,3.057,3.057,0,0,1-.58.072h-4.7a.549.549,0,0,0-.444.222c-.142.19-.291.376-.439.558-.21.259-.429.51-.653.754-.258.282-.524.556-.8.814a8.714,8.714,0,0,1-.892.734c-.117.084-.236.163-.357.236-.061.036-.119.07-.182.1-.085.046-.2.09-.208.212s.13.136.208.146a1.058,1.058,0,0,0,.143.009h4.873q1.081,0,2.4-.119a15.407,15.407,0,0,0,2.621-.463,8.967,8.967,0,0,0,2.383-1.006,5.277,5.277,0,0,0,1.747-1.71,4.8,4.8,0,0,0,.667-2.62,3.089,3.089,0,0,0-.739-1.94,8.956,8.956,0,0,0-1.893-1.744,18.373,18.373,0,0,0-2.447-1.45q-.821-.458-1.605-.864-.858-.444-1.541-.836a8.107,8.107,0,0,1-1.1-.724c-.276-.222-.41-.424-.41-.608a.585.585,0,0,1,.279-.522,1.8,1.8,0,0,1,.635-.256,3.044,3.044,0,0,1,.58-.072h8.983a.574.574,0,0,0,.517-.342l1.166-2.59A.6.6,0,0,0-5842.541,2227.72Z" transform="translate(5875.012 -2227.524)" fill="#fff"/><path d="M-5851.615,2230.478a15.112,15.112,0,0,0-.841-1.872c-.138-.256-.328-.488-.486-.734a15.5,15.5,0,0,0-1.583.286,9.227,9.227,0,0,0-2.392,1,5.2,5.2,0,0,0-1.754,1.713,4.35,4.35,0,0,0-.557,1.676,8.76,8.76,0,0,1,.138,1.53c0,.152-.015.312-.023.466a3.51,3.51,0,0,0,.516.874,8.88,8.88,0,0,0,1.893,1.706,19.816,19.816,0,0,0,2.446,1.43c.475.262.934.514,1.383.759.583.312,1.113.6,1.594.878a17.727,17.727,0,0,0,.6-4.42c0-.334-.037-.693-.062-1.042-.221-.118-.445-.244-.66-.354q-.861-.445-1.542-.836a8.316,8.316,0,0,1-1.1-.726q-.409-.333-.41-.608a.59.59,0,0,1,.279-.522,1.846,1.846,0,0,1,.637-.254,3.043,3.043,0,0,1,.578-.072h1.582a1.09,1.09,0,0,1-.294-.618A1.107,1.107,0,0,1-5851.615,2230.478Z" transform="translate(5875.28 -2227.372)" fill="url(#b)"/><path d="M-5867.252,2239.028a10.484,10.484,0,0,1,.872-4.154,11.912,11.912,0,0,1,2.459-3.666,12.209,12.209,0,0,1,3.752-2.606,11.391,11.391,0,0,1,4.756-.98,9.736,9.736,0,0,1,3.31.5,7.017,7.017,0,0,1,2.3,1.328,6.694,6.694,0,0,1,1.457,1.822,7.789,7.789,0,0,1,.759,2.038,9.271,9.271,0,0,1,.223,1.94,10.646,10.646,0,0,1-.9,4.3,11.932,11.932,0,0,1-2.5,3.666,12.055,12.055,0,0,1-3.759,2.548,11.617,11.617,0,0,1-4.687.94,9.8,9.8,0,0,1-3.279-.49,6.909,6.909,0,0,1-2.3-1.306,6.746,6.746,0,0,1-1.47-1.824,7.676,7.676,0,0,1-.775-2.063A9.4,9.4,0,0,1-5867.252,2239.028Zm10.941-7.592a3.989,3.989,0,0,0-2.439.85,8.371,8.371,0,0,0-1.992,2.176,12.251,12.251,0,0,0-1.349,2.808,8.81,8.81,0,0,0-.492,2.763,4.444,4.444,0,0,0,.229,1.476,2.141,2.141,0,0,0,.723,1.027,2.06,2.06,0,0,0,1.275.371h2.043a4.011,4.011,0,0,0,2.444-.85,8.355,8.355,0,0,0,2-2.168,11.914,11.914,0,0,0,1.348-2.808,8.886,8.886,0,0,0,.492-2.771,4.265,4.265,0,0,0-.234-1.47,2.214,2.214,0,0,0-.729-1.026,2.038,2.038,0,0,0-1.276-.38Z" transform="translate(5867.252 -2227.622)" fill="#fff"/></g></g></svg>