<svg xmlns="http://www.w3.org/2000/svg" xmlns:xlink="http://www.w3.org/1999/xlink" preserveAspectRatio="none" viewBox=" 0 0 48 48"><defs><linearGradient id="a" x1="0.437" y1="0.5" x2="1.037" y2="0.5" gradientUnits="objectBoundingBox"><stop offset="0" stop-opacity="0"/><stop offset="1" stop-opacity="0.6"/></linearGradient></defs><g transform="translate(-1042.08 -191.5)"><path d="M11.52,0H36.48A11.52,11.52,0,0,1,48,11.52V36.48A11.52,11.52,0,0,1,36.48,48H11.52A11.52,11.52,0,0,1,0,36.48V11.52A11.52,11.52,0,0,1,11.52,0Z" transform="translate(1042.08 191.5)" fill="#fff"/><g transform="translate(1050.449 206.434)"><path d="M-5914.282,2227.861h-4.432a12.816,12.816,0,0,0-4.186.654,12.138,12.138,0,0,0-3.379,1.762,11.474,11.474,0,0,0-2.488,2.533,11.366,11.366,0,0,0-1.54,2.994,9.769,9.769,0,0,0-.526,3.112,7.865,7.865,0,0,0,.494,2.782,6.458,6.458,0,0,0,1.521,2.342,7.2,7.2,0,0,0,2.61,1.608,10.714,10.714,0,0,0,3.751.591h3.435l1.759-3.744h-6.374a2.25,2.25,0,0,1-1.333-.366,2.146,2.146,0,0,1-.758-1.006,4.106,4.106,0,0,1-.241-1.45,8.029,8.029,0,0,1,.485-2.61,10.7,10.7,0,0,1,1.356-2.642,7.985,7.985,0,0,1,2.013-2.034,4.261,4.261,0,0,1,2.482-.794l3.725-.012a.431.431,0,0,0,.383-.232l1.581-2.976h0C-5913.671,2227.859-5914.282,2227.861-5914.282,2227.861Z" transform="translate(5930.834 -2227.861)" fill="#fe2e8b"/><path d="M-5924.084,2235.177h-6.3a6.492,6.492,0,0,0,1.12,1.546,7.218,7.218,0,0,0,2.611,1.61,10.723,10.723,0,0,0,3.75.59h5.193v-3.746Z" transform="translate(5931.28 -2220.545)" opacity="0.32" fill="url(#a)"/><path d="M-5920.433,2231.369l.4-.832c-.032.062-.049.106-.049.106Z" transform="translate(5941.235 -2225.185)" fill="#ff2e74"/><path d="M-5918.757,2229.735l2.228,0h-2.209Z" transform="translate(5942.911 -2225.989)" fill="#ff2e74"/><path d="M-5912.011,2240.48l-1.631,5.191a.439.439,0,0,0,.418.568h3.271a.44.44,0,0,0,.42-.312l5.154-17.222a.655.655,0,0,0-.629-.844h-9.557a3.281,3.281,0,0,0-2.916,1.776l-8.576,16.6h5.186a.433.433,0,0,0,.4-.25l6.231-13.13a2.187,2.187,0,0,1,1.975-1.252l3.041,0-1.617,5.131Z" transform="translate(5935.61 -2227.861)" fill="#fe2e8b"/><path d="M-5920.362,2236.043h4.264V2232.3h-2.922a.442.442,0,0,0-.4.252l-1.344,2.869A.438.438,0,0,0-5920.362,2236.043Z" transform="translate(5940.864 -2223.424)" fill="#fe2e8b"/></g></g></svg>