<svg xmlns="http://www.w3.org/2000/svg" xmlns:xlink="http://www.w3.org/1999/xlink" preserveAspectRatio="none" viewBox=" 0 0 48 48"><defs><linearGradient id="a" x1="0.179" y1="0.168" x2="0.96" y2="0.975" gradientUnits="objectBoundingBox"><stop offset="0" stop-color="#c63eff"/><stop offset="1" stop-color="#a83eff"/></linearGradient><linearGradient id="b" x1="0.667" y1="0.593" x2="0.097" y2="0.027" gradientUnits="objectBoundingBox"><stop offset="0" stop-opacity="0"/><stop offset="1"/></linearGradient></defs><g transform="translate(-921.12 -89)"><g transform="translate(848 -47)"><g transform="translate(73.12 136)"><path d="M11.52,0H36.48A11.52,11.52,0,0,1,48,11.52V36.48A11.52,11.52,0,0,1,36.48,48H11.52A11.52,11.52,0,0,1,0,36.48V11.52A11.52,11.52,0,0,1,11.52,0Z" transform="translate(0 0)" fill="url(#a)"/></g><g transform="translate(85.119 146.278)"><path d="M-5969.691,2246.15l-10.874,6.526a2.119,2.119,0,0,1-2.188-.008l-10.168-6.194a2.113,2.113,0,0,1-1.014-1.8v-10.95a2.115,2.115,0,0,1,1.027-1.812l10.133-6.073a2.115,2.115,0,0,1,2.195.012l2.889,1.776a.635.635,0,0,1,0,1.082l-10.548,6.426a1.056,1.056,0,0,0-.506.9v6.324a1.057,1.057,0,0,0,.5.9l5.486,3.434a2.112,2.112,0,0,0,2.222.012l6.695-4.078v-6.866l-6.516,3.968a1.062,1.062,0,0,1-1.1,0l-3.438-2.108a.634.634,0,0,1,0-1.082l9.976-6.076a2.114,2.114,0,0,1,2.206,0l3.554,2.184a1.055,1.055,0,0,1,.5.9v10.794A2.117,2.117,0,0,1-5969.691,2246.15Z" transform="translate(5993.936 -2225.533)" fill="#fff"/><path d="M-5983.894,2231.83v6.866l3.612,2.03a1.056,1.056,0,0,0,1.574-.921v-9.713a.635.635,0,0,0-.937-.558Z" transform="translate(6003.978 -2221.609)" opacity="0.3" fill="url(#b)"/></g></g></g></svg>