<svg xmlns="http://www.w3.org/2000/svg"  preserveAspectRatio="none" viewBox="0 0 24 24"><g transform="translate(-385 -283)"><path d="M-1377.661,1052.439h24v24h-24Z" transform="translate(1762.661 -769.439)" fill="none"/><path d="M-1360.123,1067.9v-4.616c0-2.834-1.514-5.206-4.154-5.834v-.627a1.391,1.391,0,0,0-1.394-1.385,1.375,1.375,0,0,0-1.375,1.385v.627c-2.649.628-4.154,2.991-4.154,5.834v4.616l-1.2,1.19a.924.924,0,0,0,.646,1.579h12.157a.926.926,0,0,0,.656-1.579Z" transform="translate(1762.661 -769.439)" fill="#858c9e"/><path d="M-1365.671,1073.439a1.851,1.851,0,0,0,1.846-1.846h-3.692A1.846,1.846,0,0,0-1365.671,1073.439Z" transform="translate(1762.661 -769.439)" fill="#858c9e"/></g></svg>