<svg xmlns="http://www.w3.org/2000/svg" preserveAspectRatio="none" viewBox="0 0 24 24">
  <g transform="translate(-1822 -876)">
    <path d="M-112.122,21022.139h3.715a1.864,1.864,0,0,1-1.857,1.861A1.86,1.86,0,0,1-112.122,21022.139Zm11.006-3.24a.223.223,0,0,0-.074-.17l-1.535-1.486a.229.229,0,0,1-.074-.17l-.011-5.793a5.268,5.268,0,0,0-2.881-5.086,1.115,1.115,0,0,1-.633-1.268v0a1.1,1.1,0,0,1,1.488-.781,7.486,7.486,0,0,1,4.226,7.139l.011,4.875a.232.232,0,0,0,.069.164l.791.8a2.308,2.308,0,0,1,.67,2.193,2.122,2.122,0,0,1-2.047,1.578Zm-15.866,1.994a1.026,1.026,0,0,1-.718-1.752l1.33-1.318-.016-5.43c0-3.15,1.662-5.768,4.59-6.463v-.4a1.523,1.523,0,0,1,1.52-1.535,1.538,1.538,0,0,1,1.541,1.535v.4c2.918.7,4.59,3.324,4.59,6.463l.016,5.43,1.3,1.318a1.028,1.028,0,0,1-.723,1.752Z" transform="translate(1942.996 -20126)" fill="#596177" stroke="rgba(0,0,0,0)" stroke-miterlimit="10" stroke-width="1"/>
  </g>
</svg>
