<svg xmlns="http://www.w3.org/2000/svg" preserveAspectRatio="none"  viewBox="0 0 24 24"><g transform="translate(20209 -5140)"><path d="M19.947,8.053a1.072,1.072,0,0,0-.914-.762L13.26,6.744,10.978,1.17a1.047,1.047,0,0,0-1.956,0L6.74,6.744.966,7.291a1.075,1.075,0,0,0-.914.762,1.142,1.142,0,0,0,.31,1.179l4.364,3.993L3.439,19.14a1.134,1.134,0,0,0,.413,1.145,1.024,1.024,0,0,0,1.168.054L10,17.233l4.977,3.106a1.026,1.026,0,0,0,1.169-.054,1.134,1.134,0,0,0,.413-1.145l-1.287-5.914,4.364-3.993a1.142,1.142,0,0,0,.31-1.179ZM10.1,17.173" transform="translate(-20207 5141.504)" fill="#ffc533"/></g></svg>