
<svg xmlns="http://www.w3.org/2000/svg"  preserveAspectRatio="none"  viewBox="0 0 24 24"><g transform="translate(-1754 -878)"><g transform="translate(-24 1)"><g transform="translate(-60 650)"><path d="M-1377.661,1052.439h18v18h-18Z" transform="translate(3217.661 -821.439)" fill="none"/><g transform="translate(1840 229.48)"><path d="M11.833,20a1,1,0,0,1-1-1V16a1,1,0,0,1,1-1H19a1,1,0,0,1,1,1v3a1,1,0,0,1-1,1ZM1,20a1,1,0,0,1-1-1V8.5a1,1,0,0,1,1-1H7.333a1,1,0,0,1,1,1V19a1,1,0,0,1-1,1Zm10.833-7.5a1,1,0,0,1-1-1v-3a1,1,0,0,1,1-1H19a1,1,0,0,1,1,1v3a1,1,0,0,1-1,1ZM.833,5A.833.833,0,0,1,0,4.165V.832A.834.834,0,0,1,.833,0H19.166A.833.833,0,0,1,20,.832V4.165A.833.833,0,0,1,19.166,5Z" transform="translate(0 -0.48)" fill="#596177"/></g></g></g><g transform="translate(-68 2)"><path d="M-1366.171,1052.447h24v24h-24Z" transform="translate(3188.171 -176.447)" fill="none"/></g></g></svg>