<svg xmlns="http://www.w3.org/2000/svg" width="24" height="24" viewBox="0 0 24 24">
  <g id="그룹_25712" data-name="그룹 25712" transform="translate(1366.171 -1093.607)">
    <g id="그룹_25711" data-name="그룹 25711">
      <rect id="사각형_26185" data-name="사각형 26185" width="24" height="24" transform="translate(-1366.171 1093.607)" fill="none"/>
    </g>
    <path id="패스_13129" data-name="패스 13129" d="M-1354.171,1097.607a8,8,0,0,0-8,8,8,8,0,0,0,8,8,8,8,0,0,0,8-8A8.009,8.009,0,0,0-1354.171,1097.607Zm-.8,9.067a1.334,1.334,0,0,1-.267-1.867h0a8.819,8.819,0,0,1,2.667-1.333,8.812,8.812,0,0,1-.534,2.933,1.332,1.332,0,0,1-1.866.267Zm.841,4.975v-1.333a4.667,4.667,0,0,0,4.667-4.667,4.667,4.667,0,0,0-4.667-4.667,4.667,4.667,0,0,0-4.666,4.667h-1.334a6,6,0,0,1,6-6,6,6,0,0,1,6,6A6,6,0,0,1-1354.13,1111.649Z" fill="#858c9e"/>
  </g>
</svg>
