<svg xmlns="http://www.w3.org/2000/svg" preserveAspectRatio="none" viewBox=" 0 0 24 24"><g transform="translate(-1672 -936)"><g transform="translate(1672 936)"><path d="M-1321.284,1173.351h24v24h-24Z" transform="translate(1321.284 -1173.351)" fill="none"/><path d="M-1302.884,1180.551h-6.4l-1.128-1.128a1.6,1.6,0,0,0-1.136-.472h-4.136a1.6,1.6,0,0,0-1.6,1.6v10.6a1.6,1.6,0,0,0,1.6,1.6h12.8a1.6,1.6,0,0,0,1.6-1.6v-9A1.6,1.6,0,0,0-1302.884,1180.551Zm-2.312,9.591-1.687-.983-1.687.983a.437.437,0,0,1-.644-.478l.444-1.913-1.47-1.27a.437.437,0,0,1,.244-.765l1.939-.165.765-1.792a.437.437,0,0,1,.8,0l.765,1.792,1.939.165a.435.435,0,0,1,.244.765l-1.47,1.27.444,1.913A.426.426,0,0,1-1305.2,1190.142Z" transform="translate(1321.284 -1173.351)" fill="#858c9e"/></g></g></svg>