
<svg xmlns="http://www.w3.org/2000/svg"  preserveAspectRatio="none" viewBox="0 0 24 24"><g transform="translate(1025.896 -1052.439)"><path d="M-1025.9,1052.439h24v24h-24Z" fill="none"/><path d="M-1006.053,1059.293h-7.605l-.792,2.8-.284,1.841,1.523,3.887.245,4.717h6.913a1.111,1.111,0,0,0,1.157-1.059v-11.128A1.111,1.111,0,0,0-1006.053,1059.293Z" fill="#e5e5eb"/><path d="M-1009.934,1069.585l-3.033,2.954-1.074-2.954.438-1.077Z" fill="#757c8d"/><text transform="translate(-1009.896 1068.439)" fill="#858c9e" font-size="7" font-family="NotoSansCJKkr-Medium, Noto Sans CJK KR" font-weight="500"><tspan x="-3.22" y="0">가</tspan></text><path d="M-1010.615,1067.7l.681,1.88h-11.8a1.111,1.111,0,0,1-1.158-1.059V1057.4a1.111,1.111,0,0,1,1.158-1.059h6.379a.9.9,0,0,1,.847.594l.854,2.36,1.6,4.43Z" fill="#858c9e"/><text transform="translate(-1017.896 1066.439)" fill="#fefefe" font-size="8" ><tspan x="-2.488" y="0">A</tspan></text></g></svg>