<svg xmlns="http://www.w3.org/2000/svg" preserveAspectRatio="none" viewBox="0 0 24 24"><g transform="translate(-866 -304.999)"><g transform="translate(-8364 -4807)"><g transform="translate(340 96)"><g transform="translate(314 69)"><rect width="24" height="24" transform="translate(8576 4947)" fill="none" opacity="0.5"/></g></g></g><g transform="translate(2373.082 -868.352)"><rect width="24" height="24" transform="translate(-1507.082 1173.351)" fill="none"/><path d="M-1490.282,1177.351h-9.6a1.6,1.6,0,0,0-1.6,1.6v12.8a1.6,1.6,0,0,0,1.6,1.6h9.6a1.6,1.6,0,0,0,1.6-1.6v-12.8A1.6,1.6,0,0,0-1490.282,1177.351Zm-2,9.2a1.2,1.2,0,0,1-1.2-1.2,1.2,1.2,0,0,1,1.2-1.2,1.2,1.2,0,0,1,1.2,1.2A1.2,1.2,0,0,1-1492.282,1186.551Z" fill="#ea4335"/></g></g></svg>