<svg xmlns="http://www.w3.org/2000/svg" preserveAspectRatio="none"  viewBox="0 0 24 24"><g transform="translate(-107 -634.997)"><g transform="translate(1018.35 -500.083)"><g transform="translate(-1 -1)"><rect width="12" height="12" rx="1.714" transform="translate(-901.35 1139.083)" fill="#858c9e"/><path d="M-906.136,1141.08h0a1.18,1.18,0,0,0-1.214,1.143V1154.8a2.368,2.368,0,0,0,2.429,2.286h13.357a1.18,1.18,0,0,0,1.214-1.143h0a1.18,1.18,0,0,0-1.214-1.143h-12.143a1.18,1.18,0,0,1-1.214-1.143v-11.431A1.18,1.18,0,0,0-906.136,1141.08Z" transform="translate(0 0)" fill="#858c9e"/></g><path d="M-911.35,1135.08h24v24h-24Z" fill="none"/></g><path d="M7.326,17.363a1,1,0,0,0-1.01-.979H2.024a.979.979,0,1,0,0,1.957H4.077l-3.8,3.926a1.007,1.007,0,0,0,0,1.383.924.924,0,0,0,1.338,0L5.433,19.7v2.133a.991.991,0,0,0,.946,1.027.989.989,0,0,0,.946-1.027V17.458c0-.019-.005-.039-.005-.056A.3.3,0,0,1,7.326,17.363Z" transform="translate(118.002 624.062)" fill="#fff"/></g></svg>