<svg xmlns="http://www.w3.org/2000/svg" preserveAspectRatio="none"  viewBox="0 0 24 24"><g transform="translate(-123 -519)"><g transform="translate(23295 1313)"></g><g transform="translate(23295 1313)"><rect width="24" height="24" transform="translate(-23172 -794)" fill="none"/></g><g transform="translate(105.707 652.574)"><g transform="translate(20.998 -132.542)"><path d="M11.238,16.88V12.111a1.068,1.068,0,0,1,1-1.121c.016,0,.027,0,.041.006s.038,0,.058,0h4.5a1.051,1.051,0,1,1,0,2.1H13.246V16.88a1.067,1.067,0,0,1-1,1.12A1.067,1.067,0,0,1,11.238,16.88ZM4.97,16.773V12.991h-3.6a1.058,1.058,0,1,1,0-2.115H5.9a1.06,1.06,0,0,1,1.064,1.058c0,.017,0,.027,0,.042s0,.041,0,.062v4.735a1.06,1.06,0,0,1-1,1.113A1.061,1.061,0,0,1,4.97,16.773Zm7.441-9.649a1.061,1.061,0,0,1-1.065-1.058c0-.017,0-.027.006-.042s0-.041,0-.062V1.227a1,1,0,1,1,2,0V5.009h3.594a1.058,1.058,0,1,1,0,2.115Zm-6.8-.118c-.02,0-.039,0-.059,0H1.057a1.051,1.051,0,1,1,0-2.1h3.59V1.12A1.068,1.068,0,0,1,5.65,0a1.067,1.067,0,0,1,1,1.12V5.889a1.068,1.068,0,0,1-1,1.121C5.634,7.011,5.623,7.006,5.61,7.006Z" transform="translate(-0.409 1.967)" fill="#858c9e"/></g></g></g></svg>