
<svg xmlns="http://www.w3.org/2000/svg" preserveAspectRatio="none" viewBox="0 0 24 24"><g transform="translate(-2073 -497)"><g transform="translate(277 266)"><g transform="translate(1800 234)"><path d="M-1989.91,20618.371l-.609.918a.623.623,0,0,1-.7.246.619.619,0,0,1-.444-.6l.021-4.859a.628.628,0,0,1,.289-.527.616.616,0,0,1,.6-.043l4.407,1.984a.628.628,0,0,1,.372.648.633.633,0,0,1-.526.535l-.805.125a5.982,5.982,0,0,0,3.7,1.27,6.094,6.094,0,0,0,5.614-3.734,1.426,1.426,0,0,1,1.321-.879,1.449,1.449,0,0,1,1.208.641,1.427,1.427,0,0,1,.124,1.363,8.979,8.979,0,0,1-8.267,5.5A8.955,8.955,0,0,1-1989.91,20618.371Zm-1.848-8.516a1.428,1.428,0,0,1-.124-1.363,8.987,8.987,0,0,1,8.268-5.488,8.978,8.978,0,0,1,6.3,2.578l.609-.918a.617.617,0,0,1,.7-.246.626.626,0,0,1,.444.6l-.021,4.871a.649.649,0,0,1-.289.516.652.652,0,0,1-.6.051l-4.417-1.992a.638.638,0,0,1-.361-.648.637.637,0,0,1,.526-.539l.805-.121a5.982,5.982,0,0,0-3.695-1.27,6.086,6.086,0,0,0-5.615,3.746,1.44,1.44,0,0,1-1.321.875A1.456,1.456,0,0,1-1991.758,20609.855Z" transform="translate(1992 -20603)" fill="#596177" stroke="rgba(0,0,0,0)" stroke-miterlimit="10" stroke-width="1"/></g></g></g></svg>