<svg xmlns="http://www.w3.org/2000/svg" preserveAspectRatio="none" viewBox="0 0 24 24"><g transform="translate(-866 -265)"><g transform="translate(2423.834 -787.439)"><path d="M-1557.834,1052.439h24v24h-24Z" fill="none"/><path d="M-1539.724,1065.248a6.439,6.439,0,0,0,.058-.809,6.437,6.437,0,0,0-.058-.808l1.736-1.362a.417.417,0,0,0,.1-.528l-1.645-2.854a.411.411,0,0,0-.5-.182l-2.048.825a5.99,5.99,0,0,0-1.39-.808l-.313-2.186a.4.4,0,0,0-.4-.347h-3.289a.4.4,0,0,0-.4.347l-.313,2.186a6.326,6.326,0,0,0-1.39.808l-2.048-.825a.4.4,0,0,0-.5.182l-1.645,2.854a.408.408,0,0,0,.1.528l1.736,1.362a6.523,6.523,0,0,0-.058.808,6.539,6.539,0,0,0,.058.809l-1.736,1.361a.417.417,0,0,0-.1.528l1.645,2.854a.411.411,0,0,0,.5.182l2.048-.825a6,6,0,0,0,1.39.808l.313,2.187a.4.4,0,0,0,.4.346h3.289a.4.4,0,0,0,.4-.346l.313-2.187a6.3,6.3,0,0,0,1.39-.808l2.048.825a.4.4,0,0,0,.5-.182l1.645-2.854a.417.417,0,0,0-.1-.528Zm-6.111,2.079a2.887,2.887,0,0,1-2.878-2.888,2.886,2.886,0,0,1,2.878-2.887,2.886,2.886,0,0,1,2.879,2.887A2.887,2.887,0,0,1-1545.835,1067.327Z" fill="#518ef8"/></g></g></svg>