<svg xmlns="http://www.w3.org/2000/svg" preserveAspectRatio="none" viewBox="0 0 24 24"><g transform="translate(-1670 -252)"><g transform="translate(804 107)"><g transform="translate(1991.212 -907.439)"><path d="M-1125.212,1052.439h24v24h-24Z" fill="none"/><path d="M-1118.05,1066.462a3.141,3.141,0,0,0-3.165,3.1,1.969,1.969,0,0,1-1.229,1.726.5.5,0,0,0-.164.828,5.285,5.285,0,0,0,1.853,1.081,4.223,4.223,0,0,0,5.213-2.308A3.029,3.029,0,0,0-1118.05,1066.462Z" fill="#fbbc04"/><path d="M1,0H12.671a1,1,0,0,1,1,1V2.889a1,1,0,0,1-1,1H1a1,1,0,0,1-1-1V1A1,1,0,0,1,1,0Z" transform="translate(-1116.212 1064.709) rotate(-45)" fill="#857547"/></g></g></g></svg>