<svg xmlns="http://www.w3.org/2000/svg" width="48" height="24" viewBox="0 0 48 24">
  <g id="그룹_30480" data-name="그룹 30480" transform="translate(-2851 -879.999)">
    <g id="그룹_27788" data-name="그룹 27788" transform="translate(4462.199 -293.352)">
      <path id="패스_13121" data-name="패스 13121" d="M-1611.2,1173.351h24v24h-24Z" fill="none"/>
      <g id="그룹_25702" data-name="그룹 25702">
        <path id="패스_13122" data-name="패스 13122" d="M-1594.1,1184.388a6.776,6.776,0,0,1,.81.056v-7.293a.8.8,0,0,0-1.371-.566l-13.3,13.215a.8.8,0,0,0,.561,1.363h7.337a6.573,6.573,0,0,1-.056-.8A6,6,0,0,1-1594.1,1184.388Z" fill="#858c9e"/>
        <path id="패스_13123" data-name="패스 13123" d="M-1590.272,1191.418l-.858-.662a3.079,3.079,0,0,0,.032-.391,2.078,2.078,0,0,0-.032-.39l.85-.662a.206.206,0,0,0,.048-.255l-.8-1.378a.2.2,0,0,0-.248-.088l-.995.4a2.771,2.771,0,0,0-.681-.39l-.153-1.052a.191.191,0,0,0-.192-.168h-1.6a.206.206,0,0,0-.2.168l-.153,1.052a3.2,3.2,0,0,0-.681.39l-.995-.4a.209.209,0,0,0-.248.088l-.8,1.378a.2.2,0,0,0,.048.255l.85.662a3.1,3.1,0,0,0-.024.39,3.1,3.1,0,0,0,.024.391l-.85.662a.206.206,0,0,0-.048.255l.8,1.379a.2.2,0,0,0,.248.087l.995-.4a2.733,2.733,0,0,0,.681.39l.153,1.052a.2.2,0,0,0,.2.168h1.6a.205.205,0,0,0,.2-.168l.153-1.052a2.957,2.957,0,0,0,.673-.39l1,.4a.21.21,0,0,0,.248-.087l.8-1.379A.206.206,0,0,0-1590.272,1191.418Zm-3.833.143a1.2,1.2,0,0,1-1.2-1.2,1.2,1.2,0,0,1,1.2-1.195,1.2,1.2,0,0,1,1.2,1.195A1.2,1.2,0,0,1-1594.1,1191.561Z" fill="#858c9e"/>
      </g>
    </g>
    <g id="그룹_30479" data-name="그룹 30479" transform="translate(4486.199 -293.352)">
      <path id="패스_13121-2" data-name="패스 13121" d="M-1611.2,1173.351h24v24h-24Z" fill="none"/>
      <g id="그룹_25702-2" data-name="그룹 25702">
        <path id="패스_13122-2" data-name="패스 13122" d="M-1594.1,1184.388a6.776,6.776,0,0,1,.81.056v-7.293a.8.8,0,0,0-1.371-.566l-13.3,13.215a.8.8,0,0,0,.561,1.363h7.337a6.573,6.573,0,0,1-.056-.8A6,6,0,0,1-1594.1,1184.388Z" fill="#fff"/>
        <path id="패스_13123-2" data-name="패스 13123" d="M-1590.272,1191.418l-.858-.662a3.079,3.079,0,0,0,.032-.391,2.078,2.078,0,0,0-.032-.39l.85-.662a.206.206,0,0,0,.048-.255l-.8-1.378a.2.2,0,0,0-.248-.088l-.995.4a2.771,2.771,0,0,0-.681-.39l-.153-1.052a.191.191,0,0,0-.192-.168h-1.6a.206.206,0,0,0-.2.168l-.153,1.052a3.2,3.2,0,0,0-.681.39l-.995-.4a.209.209,0,0,0-.248.088l-.8,1.378a.2.2,0,0,0,.048.255l.85.662a3.1,3.1,0,0,0-.024.39,3.1,3.1,0,0,0,.024.391l-.85.662a.206.206,0,0,0-.048.255l.8,1.379a.2.2,0,0,0,.248.087l.995-.4a2.733,2.733,0,0,0,.681.39l.153,1.052a.2.2,0,0,0,.2.168h1.6a.205.205,0,0,0,.2-.168l.153-1.052a2.957,2.957,0,0,0,.673-.39l1,.4a.21.21,0,0,0,.248-.087l.8-1.379A.206.206,0,0,0-1590.272,1191.418Zm-3.833.143a1.2,1.2,0,0,1-1.2-1.2,1.2,1.2,0,0,1,1.2-1.195,1.2,1.2,0,0,1,1.2,1.195A1.2,1.2,0,0,1-1594.1,1191.561Z" fill="#fff"/>
      </g>
    </g>
  </g>
</svg>
